# xmcd
#
# Track frame offsets:
#	156
#	14767
#	28594
#	42795
#	59039
#	73902
#	95075
#	110067
#	120283
#	137907
#	157100
#	173159
#	191028
#	203243
#	224309
#
# Disc length: 3190 seconds
#
# Revision: 1
# Processed by: cddbd v1.5.1PL2 Copyright (c) Steve Scherf et al.
# Submitted via: audiograbber 1.83.01
#
DISCID=ea0c740f
DTITLE=Dan Et Lou - S'il Fallait Se Quitter
DYEAR=1900
DGENRE=
TTITLE0=S'il Fallait Se Quitter
TTITLE1=Valse Au Clair De Lune
TTITLE2=Mon Coeur Te Dit Je T'aime
TTITLE3=Je Dis Des Mots D'amour
TTITLE4=Le Petit Pain Au Chocolat
TTITLE5=Souvent Maman
TTITLE6=Je T'attendrai My Love
TTITLE7=La Gigue Du Printemps
TTITLE8=Marjolaine
TTITLE9=Les Oiseaux Blancs
TTITLE10=Ma Femme
TTITLE11=Regarde-Nous
TTITLE12=Chain Saw
TTITLE13=Quand J'aime Une Fois
TTITLE14=Sayonara, Goodbye, Adieu
EXTD=
EXTT0=
EXTT1=
EXTT2=
EXTT3=
EXTT4=
EXTT5=
EXTT6=
EXTT7=
EXTT8=
EXTT9=
EXTT10=
EXTT11=
EXTT12=
EXTT13=
EXTT14=
PLAYORDER=
